<svg xmlns="http://www.w3.org/2000/svg" width="1000" height="312" viewBox="0 0 1000 312" font-family="'JetBrains Mono','Fira Code','Courier New',monospace">
<style>
.pulse{animation:p 1.8s ease-in-out infinite}
.pulse2{animation:p 1.8s ease-in-out .6s infinite}
.blink{animation:b 1s steps(2,start) infinite}
.scan{animation:s 5s linear infinite}
@keyframes p{0%,100%{opacity:1}50%{opacity:.25}}
@keyframes b{to{visibility:hidden}}
@keyframes s{0%{transform:translateY(-20px)}100%{transform:translateY(312px)}}
</style>
<rect width="1000" height="312" fill="#070d1c"/>
<rect x="4" y="4" width="992" height="296" fill="#0a1428" stroke="#1e3a6b" stroke-width="1.5"/><path d="M4,20 V4 H20 M980,4 H996 V20 M996,284 V300 H980 M20,300 H4 V284" fill="none" stroke="#38d9ff" stroke-width="3"/><text x="26" y="34" font-size="13" fill="#38d9ff" letter-spacing="1">SYSTEM MODULES  //  TECH STACK</text><line x1="26" y1="48" x2="974" y2="48" stroke="#1e3a6b" stroke-width="1"/><rect x="28" y="68" width="222" height="204" fill="#08101f" stroke="#1e3a6b" stroke-width="1"/><circle class="pulse" cx="46" cy="94" r="5" fill="#38d9ff"/><text x="62" y="99" font-size="15" fill="#38d9ff">FRONTEND</text><text x="46" y="136" font-size="16" fill="#e6efff">&gt; HTML</text><text x="46" y="164" font-size="16" fill="#e6efff">&gt; CSS</text><text x="46" y="192" font-size="16" fill="#e6efff">&gt; JavaScript</text><text x="46" y="220" font-size="16" fill="#e6efff">&gt; Flutter</text><rect x="266" y="68" width="222" height="204" fill="#08101f" stroke="#1e3a6b" stroke-width="1"/><circle class="pulse2" cx="284" cy="94" r="5" fill="#3df08a"/><text x="300" y="99" font-size="15" fill="#3df08a">BACKEND</text><text x="284" y="136" font-size="16" fill="#e6efff">&gt; Python</text><text x="284" y="164" font-size="16" fill="#e6efff">&gt; Flask</text><text x="284" y="192" font-size="16" fill="#e6efff">&gt; Node.js</text><text x="284" y="220" font-size="16" fill="#e6efff">&gt; Express.js</text><text x="284" y="248" font-size="16" fill="#e6efff">&gt; REST API</text><rect x="504" y="68" width="222" height="204" fill="#08101f" stroke="#1e3a6b" stroke-width="1"/><circle class="pulse" cx="522" cy="94" r="5" fill="#ffb42e"/><text x="538" y="99" font-size="15" fill="#ffb42e">DATABASE</text><text x="522" y="136" font-size="16" fill="#e6efff">&gt; MySQL</text><text x="522" y="164" font-size="16" fill="#e6efff">&gt; MongoDB</text><text x="522" y="192" font-size="16" fill="#e6efff">&gt; SQL</text><rect x="742" y="68" width="222" height="204" fill="#08101f" stroke="#1e3a6b" stroke-width="1"/><circle class="pulse2" cx="760" cy="94" r="5" fill="#38d9ff"/><text x="776" y="99" font-size="15" fill="#38d9ff">INFRA</text><text x="760" y="136" font-size="16" fill="#e6efff">&gt; Git</text><text x="760" y="164" font-size="16" fill="#e6efff">&gt; GitHub</text><text x="760" y="192" font-size="16" fill="#e6efff">&gt; Docker</text><text x="760" y="220" font-size="16" fill="#e6efff">&gt; Render</text></svg>