<svg xmlns="http://www.w3.org/2000/svg" width="1000" height="356" viewBox="0 0 1000 356" font-family="'JetBrains Mono','Fira Code','Courier New',monospace">
<style>
.pulse{animation:p 1.8s ease-in-out infinite}
.pulse2{animation:p 1.8s ease-in-out .6s infinite}
.blink{animation:b 1s steps(2,start) infinite}
.scan{animation:s 5s linear infinite}
@keyframes p{0%,100%{opacity:1}50%{opacity:.25}}
@keyframes b{to{visibility:hidden}}
@keyframes s{0%{transform:translateY(-20px)}100%{transform:translateY(356px)}}
</style>
<rect width="1000" height="356" fill="#070d1c"/>
<rect x="4" y="4" width="992" height="340" fill="#0a1428" stroke="#1e3a6b" stroke-width="1.5"/><path d="M4,20 V4 H20 M980,4 H996 V20 M996,328 V344 H980 M20,344 H4 V328" fill="none" stroke="#38d9ff" stroke-width="3"/><text x="26" y="34" font-size="13" fill="#38d9ff" letter-spacing="1">FLIGHT LOG  //  TIMELINE</text><line x1="26" y1="48" x2="974" y2="48" stroke="#1e3a6b" stroke-width="1"/><line x1="100" y1="96" x2="100" y2="288" stroke="#1e3a6b" stroke-width="3"/><circle cx="100" cy="96" r="6" fill="#38d9ff"/><text x="136" y="102" font-size="18" fill="#e6efff">2021</text><text x="208" y="102" font-size="18" fill="#e6efff">LAUNCH: B.Sc Computer Science, CGPA 9.05</text><circle cx="100" cy="160" r="6" fill="#3df08a"/><text x="136" y="166" font-size="18" fill="#e6efff">2024</text><text x="208" y="166" font-size="18" fill="#e6efff">ORBIT: MCA at SRM Valliammai, CGPA 8.9</text><circle cx="100" cy="224" r="6" fill="#ffb42e"/><text x="136" y="230" font-size="18" fill="#e6efff">CERT</text><text x="208" y="230" font-size="18" fill="#e6efff">Python (IIT Bombay), Cloud (IBM SkillsBuild)</text><circle class="pulse" cx="100" cy="288" r="6" fill="#3df08a"/><text x="136" y="294" font-size="18" fill="#e6efff">NOW</text><text x="208" y="294" font-size="18" fill="#e6efff">DOCKING: Full Stack Intern at Ellan Tech</text></svg>